/* XPM */ 
static const char * wxdbg_xpm[] = {
"32 32 445 2",
"  	c None",
"! 	c black",
"# 	c #D0D0D1",
"$ 	c #B4BBDA",
"% 	c #AAB4DC",
"& 	c #C2C4D1",
"' 	c #DBD8CD",
"( 	c #F0EBC4",
") 	c #F1EBBC",
"* 	c #DBD7BD",
"+ 	c #B1B6D1",
", 	c #95A4D9",
"- 	c #9AACE1",
". 	c #A0B2E3",
"0 	c #96A7E0",
"1 	c #A3ADD4",
"2 	c #BFBFC2",
"3 	c #CCCBC9",
"4 	c #E7E2BA",
"5 	c #F4EEB4",
"6 	c #F5F2C4",
"7 	c #F6F4CA",
"8 	c #F5F0B8",
"9 	c #E8E1AD",
": 	c #C9C6B7",
"; 	c #B3B6C6",
"< 	c #909ED3",
"= 	c #869BDC",
"> 	c #93A8E2",
"? 	c #96ACE7",
"@ 	c #96ACE9",
"A 	c #96ACE6",
"B 	c #8BA1DF",
"C 	c #8597D5",
"D 	c #9EA6C6",
"E 	c #DAD5B4",
"F 	c #EEE7A2",
"G 	c #F3EEA9",
"H 	c #F3F0B4",
"I 	c #F4F1B2",
"J 	c #F6F2B1",
"K 	c #F5F2B5",
"L 	c #F4F0AF",
"M 	c #EFE99F",
"N 	c #DBD4A0",
"O 	c #BABAB6",
"P 	c #B6B5B5",
"Q 	c #96A1CE",
"R 	c #738BD6",
"S 	c #7D97DE",
"T 	c #839EE3",
"U 	c #849FEB",
"V 	c #88A5F4",
"W 	c #89A7F8",
"X 	c #87A3F2",
"Y 	c #85A0E9",
"Z 	c #839CE2",
"[ 	c #7791DB",
"] 	c #7F91D0",
"^ 	c #A7AAB8",
"_ 	c #B3B2AD",
"` 	c #EAE29E",
"a 	c #F0E98E",
"b 	c #F1EC9B",
"c 	c #F2ED9B",
"d 	c #F5F09B",
"e 	c #F9F49D",
"f 	c #FBF69E",
"g 	c #F9F49C",
"h 	c #F3EE9D",
"i 	c #F1EB95",
"j 	c #EBE38C",
"k 	c #C2BEA6",
"l 	c #A8A9B2",
"m 	c #6D86D7",
"n 	c #6D8CDF",
"o 	c #7290E6",
"p 	c #7496F1",
"q 	c #789AFA",
"r 	c #799CFE",
"s 	c #799CFD",
"t 	c #7799F8",
"u 	c #7394EE",
"v 	c #7392E5",
"w 	c #6686E0",
"x 	c #858FBA",
"y 	c #B8B4A1",
"z 	c #EFE883",
"{ 	c #EFEA82",
"| 	c #F2EC83",
"} 	c #F8F184",
"~ 	c #FBF686",
" !	c #FDF787",
"!!	c #FEF787",
"#!	c #FBF586",
"$!	c #F7F184",
"%!	c #F3ED86",
"&!	c #F4ED7D",
"'!	c #BEB988",
"(!	c #95969E",
")!	c #5F7CD5",
"*!	c #5D83EB",
"+!	c #648BF8",
",!	c #658DFD",
"-!	c #658EFE",
".!	c #658DFC",
"0!	c #648BF5",
"1!	c #577CE6",
"2!	c #7580AC",
"3!	c #A39F8D",
"4!	c #EBE267",
"5!	c #F4ED68",
"6!	c #FAF26D",
"7!	c #FEF66D",
"8!	c #FEF66E",
"9!	c #FDF66E",
":!	c #FAF36E",
";!	c #F6EC5F",
"<!	c #B2AD78",
"=!	c #95959C",
">!	c #476AD5",
"?!	c #4171F4",
"@!	c #4D7CFD",
"A!	c #4F7DFF",
"B!	c #4F7DFD",
"C!	c #4F7DFE",
"D!	c #507EFF",
"E!	c #4E7CFE",
"F!	c #4B7AFD",
"G!	c #3765E9",
"H!	c #6E7AAA",
"I!	c #A4A08F",
"J!	c #EADE47",
"K!	c #F7EE40",
"L!	c #FDF44D",
"M!	c #FFF54F",
"N!	c #FEF450",
"O!	c #FEF551",
"P!	c #FFF551",
"Q!	c #FEF550",
"R!	c #FEF54E",
"S!	c #FEF549",
"T!	c #F7EC37",
"U!	c #B2AC72",
"V!	c #96969D",
"W!	c #4065D5",
"X!	c #2F64F4",
"Y!	c #386CFE",
"Z!	c #396EFE",
"[!	c #396EFD",
"]!	c #3A6FFF",
"^!	c #3A6EFE",
"_!	c #3A6EFF",
"`!	c #386DFD",
"a!	c #386DFE",
"b!	c #2C5DE9",
"c!	c #6D7AAB",
"d!	c #A5A18F",
"e!	c #EADF42",
"f!	c #F8ED2F",
"g!	c #FEF436",
"h!	c #FEF537",
"i!	c #FDF337",
"j!	c #FFF538",
"k!	c #FEF438",
"l!	c #FDF336",
"m!	c #FFF536",
"n!	c #F8ED2E",
"o!	c #B3AD72",
"p!	c #3C62D4",
"q!	c #295FF3",
"r!	c #3167FD",
"s!	c #3168FE",
"t!	c #3066FE",
"u!	c #3167FE",
"v!	c #3167FF",
"w!	c #3168FD",
"x!	c #2659E9",
"y!	c #6C79AB",
"z!	c #A5A08F",
"{!	c #E9DE3C",
"|!	c #F8ED28",
"}!	c #FDF330",
"~!	c #FEF430",
" #	c #FEF32F",
"!#	c #FFF430",
"##	c #F7EC27",
"$#	c #B3AC70",
"%#	c #355DD5",
"&#	c #225BF2",
"'#	c #2961FD",
"(#	c #2962FF",
")#	c #2861FE",
"*#	c #2962FE",
"+#	c #2A63FD",
",#	c #1E54EA",
"-#	c #6977AC",
".#	c #A7A28F",
"0#	c #EBDF32",
"1#	c #F7EC22",
"2#	c #FDF228",
"3#	c #FFF428",
"4#	c #FEF227",
"5#	c #FEF328",
"6#	c #FFF328",
"7#	c #FEF32A",
"8#	c #F9ED1D",
"9#	c #B4AD6D",
":#	c #9D9C9F",
";#	c #365DD7",
"<#	c #0C4BF7",
"=#	c #215CFF",
">#	c #235DFE",
"?#	c #205BFD",
"@#	c #225CFF",
"A#	c #225CFE",
"B#	c #215BFD",
"C#	c #245EFE",
"D#	c #1858FF",
"E#	c #144BEE",
"F#	c #707AA7",
"G#	c #9B988D",
"H#	c #E8DA42",
"I#	c #FCEF0B",
"J#	c #FFF41D",
"K#	c #FEF323",
"L#	c #FDF21F",
"M#	c #FFF320",
"N#	c #FDF221",
"O#	c #FEF421",
"P#	c #FFF814",
"Q#	c #FAEC1F",
"R#	c #B1AB7D",
"S#	c #6A6966",
"T#	c #8A8EA4",
"U#	c #5071E1",
"V#	c #1250FF",
"W#	c #0E50FF",
"X#	c #1B58FE",
"Y#	c #1B57FE",
"Z#	c #1A57FE",
"[#	c #1C58FE",
"]#	c #1454FF",
"^#	c #0D4EFF",
"_#	c #315FF0",
"`#	c #6D7DB3",
"a#	c #8E9292",
"b#	c #929295",
"c#	c #979C96",
"d#	c #D4C95F",
"e#	c #FDEF1D",
"f#	c #FFF60A",
"g#	c #FEF318",
"h#	c #FEF21A",
"i#	c #FEF219",
"j#	c #FEF21B",
"k#	c #FFF50F",
"l#	c #FFF610",
"m#	c #EDE146",
"n#	c #A7A27E",
"o#	c #5D5E64",
"p#	c #837F76",
"q#	c #828EBD",
"r#	c #3865F0",
"s#	c #0648FF",
"t#	c #0B4EFF",
"u#	c #1151FF",
"v#	c #0549FF",
"w#	c #1E55F9",
"x#	c #5E76C9",
"y#	c #8B9298",
"z#	c #A89E93",
"{#	c #CF9A90",
"|#	c #DD9A8D",
"}#	c #B79B99",
"~#	c #8B91A2",
" $	c #A8A78C",
"!$	c #E6D94A",
"#$	c #FFF30C",
"$$	c #FFF506",
"%$	c #FFF50C",
"&$	c #FFF605",
"'$	c #F7EA2E",
"($	c #BFB874",
")$	c #6E6E79",
"*$	c #8D8B8B",
"+$	c #7286CE",
",$	c #2157FA",
"-$	c #0947FF",
".$	c #4869DA",
"0$	c #818BA1",
"1$	c #9E9B8E",
"2$	c #BE968D",
"3$	c #D78A7C",
"4$	c #DE9180",
"5$	c #DF9989",
"6$	c #DF9180",
"7$	c #D09486",
"8$	c #9F9196",
"9$	c #88909F",
":$	c #BAB57D",
";$	c #F3E52D",
"<$	c #FFF218",
"=$	c #D2C963",
">$	c #84837F",
"?$	c #7A7D92",
"@$	c #7882AD",
"A$	c #94968B",
"B$	c #B1968C",
"C$	c #CF8378",
"D$	c #D97F6D",
"E$	c #DC8C7B",
"F$	c #E18F7E",
"G$	c #E48E7C",
"H$	c #E1907E",
"I$	c #DB8876",
"J$	c #D7826F",
"K$	c #BE897E",
"L$	c #8E8C9B",
"M$	c #939694",
"N$	c #96907A",
"O$	c #9B9A90",
"P$	c #C68B83",
"Q$	c #D36E5B",
"R$	c #D67864",
"S$	c #DB7F6C",
"T$	c #E37F6B",
"U$	c #ED836E",
"V$	c #F2856F",
"W$	c #EC826D",
"X$	c #E3806C",
"Y$	c #DC7E6B",
"Z$	c #D67662",
"[$	c #D07663",
"]$	c #AD9695",
"^$	c #ACA9AA",
"_$	c #CC7160",
"`$	c #D56954",
"a$	c #DD6F5A",
"b$	c #E7725B",
"c$	c #F1765E",
"d$	c #F5775F",
"e$	c #F6775F",
"f$	c #F1755E",
"g$	c #E7725C",
"h$	c #DE725D",
"i$	c #D6634D",
"j$	c #C0928A",
"k$	c #969494",
"l$	c #C66454",
"m$	c #DF5C44",
"n$	c #EC654C",
"o$	c #F2674C",
"p$	c #F3674D",
"q$	c #F2674D",
"r$	c #EC674E",
"s$	c #DC5840",
"t$	c #B08078",
"u$	c #939394",
"v$	c #C45340",
"w$	c #E34327",
"x$	c #F05338",
"y$	c #F15439",
"z$	c #F05539",
"{$	c #F15539",
"|$	c #F1553A",
"}$	c #F05439",
"~$	c #F15438",
" %	c #F15337",
"!%	c #DE3C20",
"#%	c #AD766E",
"$%	c #949595",
"%%	c #C34F3D",
"&%	c #E13519",
"'%	c #ED4125",
"(%	c #EF4226",
")%	c #EE4226",
"*%	c #EF4327",
"+%	c #EE4225",
",%	c #DC3216",
"-%	c #AE766D",
".%	c #C24C3B",
"0%	c #DE3016",
"1%	c #EB3C20",
"2%	c #ED3C20",
"3%	c #EC3A1F",
"4%	c #EC3B1F",
"5%	c #ED3D22",
"6%	c #DA2D13",
"7%	c #AD746C",
"8%	c #949495",
"9%	c #C24532",
":%	c #DC2D13",
";%	c #E8371C",
"<%	c #EB361B",
"=%	c #EA361A",
">%	c #EB371B",
"?%	c #EA391F",
"@%	c #D9270C",
"A%	c #AE7169",
"B%	c #989C9D",
"C%	c #C05243",
"D%	c #DB1900",
"E%	c #E92E13",
"F%	c #E83319",
"G%	c #E82F15",
"H%	c #E93116",
"I%	c #E93016",
"J%	c #E73016",
"K%	c #E93319",
"L%	c #EC280C",
"M%	c #D52108",
"N%	c #B1827C",
"O%	c #989292",
"P%	c #C77166",
"Q%	c #E42E15",
"R%	c #EA1D01",
"S%	c #E72A11",
"T%	c #E72C13",
"U%	c #E72D14",
"V%	c #E9250A",
"W%	c #E91C01",
"X%	c #DD4B38",
"Y%	c #B28882",
"Z%	c #7C8080",
"[%	c #758284",
"]%	c #A89391",
"^%	c #D45E50",
"_%	c #E41D06",
"`%	c #E71A01",
"a%	c #E62309",
"b%	c #E71500",
"c%	c #E0351F",
"d%	c #C47E76",
"e%	c #7C898B",
"f%	c #B68D89",
"g%	c #DB4331",
"h%	c #E11F0D",
"i%	c #CF6B60",
"j%	c #9C9594",
"k%	c #607072",
"l%	c #495C5E",
"m%	c #8F8E8E",
"n%	c #AA9391",
"o%	c #6F7F81",
"                                                                ",
"                                                                ",
"                                                                ",
"              # $ % &                     ' ( ) *               ",
"            + , - . 0 1 2             3 4 5 6 7 8 9 :           ",
"        ; < = > ? @ A B C D         E F G H I J K L M N O       ",
"    P Q R S T U V W X Y Z [ ] ^ _ ` a b c d e f g d h i j k     ",
"    l m n o p q r r s t u v w x y z { | } ~  !!! !#!$!%!&!'!    ",
"    (!)!*!+!,!-!-!-!-!-!.!0!1!2!3!4!5!6!7!8!7!8!7!8!9!:!;!<!    ",
"    =!>!?!@!A!B!C!D!C!C!E!F!G!H!I!J!K!L!M!N!O!P!Q!N!R!S!T!U!    ",
"    V!W!X!Y!Z![!]!^!_!`!a!a!b!c!d!e!f!g!h!i!j!k!j!l!m!m!n!o!    ",
"    V!p!q!r!s!t!u!v!u!t!s!w!x!y!z!{!|!}!~! #~!!#~! #~!~!##$#    ",
"    V!%#&#'#(#)#(#(#*#)#(#+#,#-#.#0#1#2#3#4#5#6#5#4#5#7#8#9#    ",
"    :#;#<#=#>#?#@#A#=#B#C#D#E#F#G#H#I#J#K#L#M#M#M#N#O#P#Q#R#    ",
"    S#T#U#V#W#X#Y#Z#[#]#^#_#`#a#b#c#d#e#f#g#h#i#j#k#l#m#n#o#    ",
"        p#q#r#s#t#u#v#w#x#y#z#{#|#}#~# $!$#$$$%$&$'$($)$        ",
"            *$+$,$-$.$0$1$2$3$4$5$6$7$8$9$:$;$<$=$>$            ",
"                ?$@$A$B$C$D$E$F$G$H$I$J$K$L$M$N$                ",
"                  O$P$Q$R$S$T$U$V$W$X$Y$Z$[$]$                  ",
"                  ^$_$`$a$b$c$d$e$d$f$g$h$i$j$                  ",
"                  k$l$m$n$o$p$p$p$p$p$q$r$s$t$                  ",
"                  u$v$w$x$y$z${$|${$}$~$ %!%#%                  ",
"                  $%%%&%'%(%)%*%*%*%+%+%(%,%-%                  ",
"                  $%.%0%1%2%3%2%2%2%4%2%5%6%7%                  ",
"                  8%9%:%;%<%=%>%>%>%=%<%?%@%A%                  ",
"                  B%C%D%E%F%G%H%H%I%J%K%L%M%N%                  ",
"                    O%P%Q%R%S%T%S%U%V%W%X%Y%Z%                  ",
"                      [%]%^%_%`%a%b%c%d%a#                      ",
"                          e%f%g%h%i%j%k%                        ",
"                            l%m%n%o%                            ",
"                                                                ",
"                                                                "};